<svg width="32" height="32" version="1.1" viewBox="0 0 32 32" xmlns="http://www.w3.org/2000/svg" xmlns:xlink="http://www.w3.org/1999/xlink">
 <title>rossignol-32*32</title>
 <defs>
  <linearGradient id="linearGradient9" x1="18.692" x2="18.246" y1="17.186" y2="17.381" gradientUnits="userSpaceOnUse">
   <stop stop-color="#500" offset="0"/>
   <stop stop-color="#500" stop-opacity="0" offset="1"/>
  </linearGradient>
  <linearGradient id="linearGradient11" x1="16.405" x2="4.0453" y1="13.67" y2="6.8073" gradientUnits="userSpaceOnUse">
   <stop stop-color="#d40000" offset="0"/>
   <stop stop-color="#500" stop-opacity="0" offset="1"/>
  </linearGradient>
 </defs>
 <path d="m16.795 22.291c-1.3949 3.8221-2.0366 4.5754-2.0366 4.5754l-0.30689 1.1997 0.72537-1.0602 0.36268 1.1439 0.0837-1.1439 0.94856 0.0837-0.66957-0.50218 1.0323-4.2964z" fill="#a40"/>
 <ellipse cx="19.264" cy="15.065" rx="9.4717" ry="9.9878" fill="#800000"/>
 <path d="m12.276 8.3697c14.173 13.336-8.1744-1.6181-8.1744-1.6181z" fill="url(#linearGradient11)"/>
 <ellipse cx="17.73" cy="9.5414" rx=".79512" ry=".80907"/>
 <g fill="url(#linearGradient9)">
  <path d="m16.963 13.866s11.187 0.80907 12.861 3.0131c1.6739 2.204-1.4507 1.7576-1.4507 1.7576s1.5902 2.1761-0.41848 1.6181c-2.0087-0.55798-5.803-2.0366-5.803-2.0366l-4.2406-1.5344" fill="url(#linearGradient9)"/>
 </g>
 <path d="m19.418 22.682c-1.3949 3.8221-2.0366 4.5754-2.0366 4.5754l-0.30689 1.1997 0.72537-1.0602 0.36268 1.1439 0.0837-1.1439 0.94856 0.0837-0.66957-0.50218 1.0323-4.2964z" fill="#d45500"/>
</svg>
